<?xml version="1.0" encoding="utf-8" standalone="no"?>
<!DOCTYPE svg PUBLIC "-//W3C//DTD SVG 1.1//EN"
  "http://www.w3.org/Graphics/SVG/1.1/DTD/svg11.dtd">
<!-- Created with matplotlib (https://matplotlib.org/) -->
<svg height="320.355469pt" version="1.1" viewBox="0 0 792.609375 320.355469" width="792.609375pt" xmlns="http://www.w3.org/2000/svg" xmlns:xlink="http://www.w3.org/1999/xlink">
 <defs>
  <style type="text/css">
*{stroke-linecap:butt;stroke-linejoin:round;}
  </style>
 </defs>
 <g id="figure_1">
  <g id="patch_1">
   <path d="M 0 320.355469 
L 792.609375 320.355469 
L 792.609375 0 
L 0 0 
z
" style="fill:#ffffff;"/>
  </g>
  <g id="axes_1">
   <g id="patch_2">
    <path d="M 50.465625 282.799219 
L 775.865625 282.799219 
L 775.865625 10.999219 
L 50.465625 10.999219 
z
" style="fill:#ffffff;"/>
   </g>
   <g id="matplotlib.axis_1">
    <g id="xtick_1">
     <g id="line2d_1">
      <defs>
       <path d="M 0 0 
L 0 3.5 
" id="m94945eaf32" style="stroke:#000000;stroke-width:0.8;"/>
      </defs>
      <g>
       <use style="stroke:#000000;stroke-width:0.8;" x="128.187054" xlink:href="#m94945eaf32" y="282.799219"/>
      </g>
     </g>
     <g id="text_1">
      <!-- 100 -->
      <defs>
       <path d="M 12.40625 8.296875 
L 28.515625 8.296875 
L 28.515625 63.921875 
L 10.984375 60.40625 
L 10.984375 69.390625 
L 28.421875 72.90625 
L 38.28125 72.90625 
L 38.28125 8.296875 
L 54.390625 8.296875 
L 54.390625 0 
L 12.40625 0 
z
" id="DejaVuSans-49"/>
       <path d="M 31.78125 66.40625 
Q 24.171875 66.40625 20.328125 58.90625 
Q 16.5 51.421875 16.5 36.375 
Q 16.5 21.390625 20.328125 13.890625 
Q 24.171875 6.390625 31.78125 6.390625 
Q 39.453125 6.390625 43.28125 13.890625 
Q 47.125 21.390625 47.125 36.375 
Q 47.125 51.421875 43.28125 58.90625 
Q 39.453125 66.40625 31.78125 66.40625 
z
M 31.78125 74.21875 
Q 44.046875 74.21875 50.515625 64.515625 
Q 56.984375 54.828125 56.984375 36.375 
Q 56.984375 17.96875 50.515625 8.265625 
Q 44.046875 -1.421875 31.78125 -1.421875 
Q 19.53125 -1.421875 13.0625 8.265625 
Q 6.59375 17.96875 6.59375 36.375 
Q 6.59375 54.828125 13.0625 64.515625 
Q 19.53125 74.21875 31.78125 74.21875 
z
" id="DejaVuSans-48"/>
      </defs>
      <g transform="translate(118.643304 297.397656)scale(0.1 -0.1)">
       <use xlink:href="#DejaVuSans-49"/>
       <use x="63.623047" xlink:href="#DejaVuSans-48"/>
       <use x="127.246094" xlink:href="#DejaVuSans-48"/>
      </g>
     </g>
    </g>
    <g id="xtick_2">
     <g id="line2d_2">
      <g>
       <use style="stroke:#000000;stroke-width:0.8;" x="257.722768" xlink:href="#m94945eaf32" y="282.799219"/>
      </g>
     </g>
     <g id="text_2">
      <!-- 120 -->
      <defs>
       <path d="M 19.1875 8.296875 
L 53.609375 8.296875 
L 53.609375 0 
L 7.328125 0 
L 7.328125 8.296875 
Q 12.9375 14.109375 22.625 23.890625 
Q 32.328125 33.6875 34.8125 36.53125 
Q 39.546875 41.84375 41.421875 45.53125 
Q 43.3125 49.21875 43.3125 52.78125 
Q 43.3125 58.59375 39.234375 62.25 
Q 35.15625 65.921875 28.609375 65.921875 
Q 23.96875 65.921875 18.8125 64.3125 
Q 13.671875 62.703125 7.8125 59.421875 
L 7.8125 69.390625 
Q 13.765625 71.78125 18.9375 73 
Q 24.125 74.21875 28.421875 74.21875 
Q 39.75 74.21875 46.484375 68.546875 
Q 53.21875 62.890625 53.21875 53.421875 
Q 53.21875 48.921875 51.53125 44.890625 
Q 49.859375 40.875 45.40625 35.40625 
Q 44.1875 33.984375 37.640625 27.21875 
Q 31.109375 20.453125 19.1875 8.296875 
z
" id="DejaVuSans-50"/>
      </defs>
      <g transform="translate(248.179018 297.397656)scale(0.1 -0.1)">
       <use xlink:href="#DejaVuSans-49"/>
       <use x="63.623047" xlink:href="#DejaVuSans-50"/>
       <use x="127.246094" xlink:href="#DejaVuSans-48"/>
      </g>
     </g>
    </g>
    <g id="xtick_3">
     <g id="line2d_3">
      <g>
       <use style="stroke:#000000;stroke-width:0.8;" x="387.258482" xlink:href="#m94945eaf32" y="282.799219"/>
      </g>
     </g>
     <g id="text_3">
      <!-- 140 -->
      <defs>
       <path d="M 37.796875 64.3125 
L 12.890625 25.390625 
L 37.796875 25.390625 
z
M 35.203125 72.90625 
L 47.609375 72.90625 
L 47.609375 25.390625 
L 58.015625 25.390625 
L 58.015625 17.1875 
L 47.609375 17.1875 
L 47.609375 0 
L 37.796875 0 
L 37.796875 17.1875 
L 4.890625 17.1875 
L 4.890625 26.703125 
z
" id="DejaVuSans-52"/>
      </defs>
      <g transform="translate(377.714732 297.397656)scale(0.1 -0.1)">
       <use xlink:href="#DejaVuSans-49"/>
       <use x="63.623047" xlink:href="#DejaVuSans-52"/>
       <use x="127.246094" xlink:href="#DejaVuSans-48"/>
      </g>
     </g>
    </g>
    <g id="xtick_4">
     <g id="line2d_4">
      <g>
       <use style="stroke:#000000;stroke-width:0.8;" x="516.794196" xlink:href="#m94945eaf32" y="282.799219"/>
      </g>
     </g>
     <g id="text_4">
      <!-- 160 -->
      <defs>
       <path d="M 33.015625 40.375 
Q 26.375 40.375 22.484375 35.828125 
Q 18.609375 31.296875 18.609375 23.390625 
Q 18.609375 15.53125 22.484375 10.953125 
Q 26.375 6.390625 33.015625 6.390625 
Q 39.65625 6.390625 43.53125 10.953125 
Q 47.40625 15.53125 47.40625 23.390625 
Q 47.40625 31.296875 43.53125 35.828125 
Q 39.65625 40.375 33.015625 40.375 
z
M 52.59375 71.296875 
L 52.59375 62.3125 
Q 48.875 64.0625 45.09375 64.984375 
Q 41.3125 65.921875 37.59375 65.921875 
Q 27.828125 65.921875 22.671875 59.328125 
Q 17.53125 52.734375 16.796875 39.40625 
Q 19.671875 43.65625 24.015625 45.921875 
Q 28.375 48.1875 33.59375 48.1875 
Q 44.578125 48.1875 50.953125 41.515625 
Q 57.328125 34.859375 57.328125 23.390625 
Q 57.328125 12.15625 50.6875 5.359375 
Q 44.046875 -1.421875 33.015625 -1.421875 
Q 20.359375 -1.421875 13.671875 8.265625 
Q 6.984375 17.96875 6.984375 36.375 
Q 6.984375 53.65625 15.1875 63.9375 
Q 23.390625 74.21875 37.203125 74.21875 
Q 40.921875 74.21875 44.703125 73.484375 
Q 48.484375 72.75 52.59375 71.296875 
z
" id="DejaVuSans-54"/>
      </defs>
      <g transform="translate(507.250446 297.397656)scale(0.1 -0.1)">
       <use xlink:href="#DejaVuSans-49"/>
       <use x="63.623047" xlink:href="#DejaVuSans-54"/>
       <use x="127.246094" xlink:href="#DejaVuSans-48"/>
      </g>
     </g>
    </g>
    <g id="xtick_5">
     <g id="line2d_5">
      <g>
       <use style="stroke:#000000;stroke-width:0.8;" x="646.329911" xlink:href="#m94945eaf32" y="282.799219"/>
      </g>
     </g>
     <g id="text_5">
      <!-- 180 -->
      <defs>
       <path d="M 31.78125 34.625 
Q 24.75 34.625 20.71875 30.859375 
Q 16.703125 27.09375 16.703125 20.515625 
Q 16.703125 13.921875 20.71875 10.15625 
Q 24.75 6.390625 31.78125 6.390625 
Q 38.8125 6.390625 42.859375 10.171875 
Q 46.921875 13.96875 46.921875 20.515625 
Q 46.921875 27.09375 42.890625 30.859375 
Q 38.875 34.625 31.78125 34.625 
z
M 21.921875 38.8125 
Q 15.578125 40.375 12.03125 44.71875 
Q 8.5 49.078125 8.5 55.328125 
Q 8.5 64.0625 14.71875 69.140625 
Q 20.953125 74.21875 31.78125 74.21875 
Q 42.671875 74.21875 48.875 69.140625 
Q 55.078125 64.0625 55.078125 55.328125 
Q 55.078125 49.078125 51.53125 44.71875 
Q 48 40.375 41.703125 38.8125 
Q 48.828125 37.15625 52.796875 32.3125 
Q 56.78125 27.484375 56.78125 20.515625 
Q 56.78125 9.90625 50.3125 4.234375 
Q 43.84375 -1.421875 31.78125 -1.421875 
Q 19.734375 -1.421875 13.25 4.234375 
Q 6.78125 9.90625 6.78125 20.515625 
Q 6.78125 27.484375 10.78125 32.3125 
Q 14.796875 37.15625 21.921875 38.8125 
z
M 18.3125 54.390625 
Q 18.3125 48.734375 21.84375 45.5625 
Q 25.390625 42.390625 31.78125 42.390625 
Q 38.140625 42.390625 41.71875 45.5625 
Q 45.3125 48.734375 45.3125 54.390625 
Q 45.3125 60.0625 41.71875 63.234375 
Q 38.140625 66.40625 31.78125 66.40625 
Q 25.390625 66.40625 21.84375 63.234375 
Q 18.3125 60.0625 18.3125 54.390625 
z
" id="DejaVuSans-56"/>
      </defs>
      <g transform="translate(636.786161 297.397656)scale(0.1 -0.1)">
       <use xlink:href="#DejaVuSans-49"/>
       <use x="63.623047" xlink:href="#DejaVuSans-56"/>
       <use x="127.246094" xlink:href="#DejaVuSans-48"/>
      </g>
     </g>
    </g>
    <g id="xtick_6">
     <g id="line2d_6">
      <g>
       <use style="stroke:#000000;stroke-width:0.8;" x="775.865625" xlink:href="#m94945eaf32" y="282.799219"/>
      </g>
     </g>
     <g id="text_6">
      <!-- 200 -->
      <g transform="translate(766.321875 297.397656)scale(0.1 -0.1)">
       <use xlink:href="#DejaVuSans-50"/>
       <use x="63.623047" xlink:href="#DejaVuSans-48"/>
       <use x="127.246094" xlink:href="#DejaVuSans-48"/>
      </g>
     </g>
    </g>
    <g id="text_7">
     <!-- Position in Degree -->
     <defs>
      <path d="M 19.671875 64.796875 
L 19.671875 37.40625 
L 32.078125 37.40625 
Q 38.96875 37.40625 42.71875 40.96875 
Q 46.484375 44.53125 46.484375 51.125 
Q 46.484375 57.671875 42.71875 61.234375 
Q 38.96875 64.796875 32.078125 64.796875 
z
M 9.8125 72.90625 
L 32.078125 72.90625 
Q 44.34375 72.90625 50.609375 67.359375 
Q 56.890625 61.8125 56.890625 51.125 
Q 56.890625 40.328125 50.609375 34.8125 
Q 44.34375 29.296875 32.078125 29.296875 
L 19.671875 29.296875 
L 19.671875 0 
L 9.8125 0 
z
" id="DejaVuSans-80"/>
      <path d="M 30.609375 48.390625 
Q 23.390625 48.390625 19.1875 42.75 
Q 14.984375 37.109375 14.984375 27.296875 
Q 14.984375 17.484375 19.15625 11.84375 
Q 23.34375 6.203125 30.609375 6.203125 
Q 37.796875 6.203125 41.984375 11.859375 
Q 46.1875 17.53125 46.1875 27.296875 
Q 46.1875 37.015625 41.984375 42.703125 
Q 37.796875 48.390625 30.609375 48.390625 
z
M 30.609375 56 
Q 42.328125 56 49.015625 48.375 
Q 55.71875 40.765625 55.71875 27.296875 
Q 55.71875 13.875 49.015625 6.21875 
Q 42.328125 -1.421875 30.609375 -1.421875 
Q 18.84375 -1.421875 12.171875 6.21875 
Q 5.515625 13.875 5.515625 27.296875 
Q 5.515625 40.765625 12.171875 48.375 
Q 18.84375 56 30.609375 56 
z
" id="DejaVuSans-111"/>
      <path d="M 44.28125 53.078125 
L 44.28125 44.578125 
Q 40.484375 46.53125 36.375 47.5 
Q 32.28125 48.484375 27.875 48.484375 
Q 21.1875 48.484375 17.84375 46.4375 
Q 14.5 44.390625 14.5 40.28125 
Q 14.5 37.15625 16.890625 35.375 
Q 19.28125 33.59375 26.515625 31.984375 
L 29.59375 31.296875 
Q 39.15625 29.25 43.1875 25.515625 
Q 47.21875 21.78125 47.21875 15.09375 
Q 47.21875 7.46875 41.1875 3.015625 
Q 35.15625 -1.421875 24.609375 -1.421875 
Q 20.21875 -1.421875 15.453125 -0.5625 
Q 10.6875 0.296875 5.421875 2 
L 5.421875 11.28125 
Q 10.40625 8.6875 15.234375 7.390625 
Q 20.0625 6.109375 24.8125 6.109375 
Q 31.15625 6.109375 34.5625 8.28125 
Q 37.984375 10.453125 37.984375 14.40625 
Q 37.984375 18.0625 35.515625 20.015625 
Q 33.0625 21.96875 24.703125 23.78125 
L 21.578125 24.515625 
Q 13.234375 26.265625 9.515625 29.90625 
Q 5.8125 33.546875 5.8125 39.890625 
Q 5.8125 47.609375 11.28125 51.796875 
Q 16.75 56 26.8125 56 
Q 31.78125 56 36.171875 55.265625 
Q 40.578125 54.546875 44.28125 53.078125 
z
" id="DejaVuSans-115"/>
      <path d="M 9.421875 54.6875 
L 18.40625 54.6875 
L 18.40625 0 
L 9.421875 0 
z
M 9.421875 75.984375 
L 18.40625 75.984375 
L 18.40625 64.59375 
L 9.421875 64.59375 
z
" id="DejaVuSans-105"/>
      <path d="M 18.3125 70.21875 
L 18.3125 54.6875 
L 36.8125 54.6875 
L 36.8125 47.703125 
L 18.3125 47.703125 
L 18.3125 18.015625 
Q 18.3125 11.328125 20.140625 9.421875 
Q 21.96875 7.515625 27.59375 7.515625 
L 36.8125 7.515625 
L 36.8125 0 
L 27.59375 0 
Q 17.1875 0 13.234375 3.875 
Q 9.28125 7.765625 9.28125 18.015625 
L 9.28125 47.703125 
L 2.6875 47.703125 
L 2.6875 54.6875 
L 9.28125 54.6875 
L 9.28125 70.21875 
z
" id="DejaVuSans-116"/>
      <path d="M 54.890625 33.015625 
L 54.890625 0 
L 45.90625 0 
L 45.90625 32.71875 
Q 45.90625 40.484375 42.875 44.328125 
Q 39.84375 48.1875 33.796875 48.1875 
Q 26.515625 48.1875 22.3125 43.546875 
Q 18.109375 38.921875 18.109375 30.90625 
L 18.109375 0 
L 9.078125 0 
L 9.078125 54.6875 
L 18.109375 54.6875 
L 18.109375 46.1875 
Q 21.34375 51.125 25.703125 53.5625 
Q 30.078125 56 35.796875 56 
Q 45.21875 56 50.046875 50.171875 
Q 54.890625 44.34375 54.890625 33.015625 
z
" id="DejaVuSans-110"/>
      <path id="DejaVuSans-32"/>
      <path d="M 19.671875 64.796875 
L 19.671875 8.109375 
L 31.59375 8.109375 
Q 46.6875 8.109375 53.6875 14.9375 
Q 60.6875 21.78125 60.6875 36.53125 
Q 60.6875 51.171875 53.6875 57.984375 
Q 46.6875 64.796875 31.59375 64.796875 
z
M 9.8125 72.90625 
L 30.078125 72.90625 
Q 51.265625 72.90625 61.171875 64.09375 
Q 71.09375 55.28125 71.09375 36.53125 
Q 71.09375 17.671875 61.125 8.828125 
Q 51.171875 0 30.078125 0 
L 9.8125 0 
z
" id="DejaVuSans-68"/>
      <path d="M 56.203125 29.59375 
L 56.203125 25.203125 
L 14.890625 25.203125 
Q 15.484375 15.921875 20.484375 11.0625 
Q 25.484375 6.203125 34.421875 6.203125 
Q 39.59375 6.203125 44.453125 7.46875 
Q 49.3125 8.734375 54.109375 11.28125 
L 54.109375 2.78125 
Q 49.265625 0.734375 44.1875 -0.34375 
Q 39.109375 -1.421875 33.890625 -1.421875 
Q 20.796875 -1.421875 13.15625 6.1875 
Q 5.515625 13.8125 5.515625 26.8125 
Q 5.515625 40.234375 12.765625 48.109375 
Q 20.015625 56 32.328125 56 
Q 43.359375 56 49.78125 48.890625 
Q 56.203125 41.796875 56.203125 29.59375 
z
M 47.21875 32.234375 
Q 47.125 39.59375 43.09375 43.984375 
Q 39.0625 48.390625 32.421875 48.390625 
Q 24.90625 48.390625 20.390625 44.140625 
Q 15.875 39.890625 15.1875 32.171875 
z
" id="DejaVuSans-101"/>
      <path d="M 45.40625 27.984375 
Q 45.40625 37.75 41.375 43.109375 
Q 37.359375 48.484375 30.078125 48.484375 
Q 22.859375 48.484375 18.828125 43.109375 
Q 14.796875 37.75 14.796875 27.984375 
Q 14.796875 18.265625 18.828125 12.890625 
Q 22.859375 7.515625 30.078125 7.515625 
Q 37.359375 7.515625 41.375 12.890625 
Q 45.40625 18.265625 45.40625 27.984375 
z
M 54.390625 6.78125 
Q 54.390625 -7.171875 48.1875 -13.984375 
Q 42 -20.796875 29.203125 -20.796875 
Q 24.46875 -20.796875 20.265625 -20.09375 
Q 16.0625 -19.390625 12.109375 -17.921875 
L 12.109375 -9.1875 
Q 16.0625 -11.328125 19.921875 -12.34375 
Q 23.78125 -13.375 27.78125 -13.375 
Q 36.625 -13.375 41.015625 -8.765625 
Q 45.40625 -4.15625 45.40625 5.171875 
L 45.40625 9.625 
Q 42.625 4.78125 38.28125 2.390625 
Q 33.9375 0 27.875 0 
Q 17.828125 0 11.671875 7.65625 
Q 5.515625 15.328125 5.515625 27.984375 
Q 5.515625 40.671875 11.671875 48.328125 
Q 17.828125 56 27.875 56 
Q 33.9375 56 38.28125 53.609375 
Q 42.625 51.21875 45.40625 46.390625 
L 45.40625 54.6875 
L 54.390625 54.6875 
z
" id="DejaVuSans-103"/>
      <path d="M 41.109375 46.296875 
Q 39.59375 47.171875 37.8125 47.578125 
Q 36.03125 48 33.890625 48 
Q 26.265625 48 22.1875 43.046875 
Q 18.109375 38.09375 18.109375 28.8125 
L 18.109375 0 
L 9.078125 0 
L 9.078125 54.6875 
L 18.109375 54.6875 
L 18.109375 46.1875 
Q 20.953125 51.171875 25.484375 53.578125 
Q 30.03125 56 36.53125 56 
Q 37.453125 56 38.578125 55.875 
Q 39.703125 55.765625 41.0625 55.515625 
z
" id="DejaVuSans-114"/>
     </defs>
     <g transform="translate(367.478906 311.075781)scale(0.1 -0.1)">
      <use xlink:href="#DejaVuSans-80"/>
      <use x="60.255859" xlink:href="#DejaVuSans-111"/>
      <use x="121.4375" xlink:href="#DejaVuSans-115"/>
      <use x="173.537109" xlink:href="#DejaVuSans-105"/>
      <use x="201.320312" xlink:href="#DejaVuSans-116"/>
      <use x="240.529297" xlink:href="#DejaVuSans-105"/>
      <use x="268.3125" xlink:href="#DejaVuSans-111"/>
      <use x="329.494141" xlink:href="#DejaVuSans-110"/>
      <use x="392.873047" xlink:href="#DejaVuSans-32"/>
      <use x="424.660156" xlink:href="#DejaVuSans-105"/>
      <use x="452.443359" xlink:href="#DejaVuSans-110"/>
      <use x="515.822266" xlink:href="#DejaVuSans-32"/>
      <use x="547.609375" xlink:href="#DejaVuSans-68"/>
      <use x="624.611328" xlink:href="#DejaVuSans-101"/>
      <use x="686.134766" xlink:href="#DejaVuSans-103"/>
      <use x="749.611328" xlink:href="#DejaVuSans-114"/>
      <use x="790.693359" xlink:href="#DejaVuSans-101"/>
      <use x="852.216797" xlink:href="#DejaVuSans-101"/>
     </g>
    </g>
   </g>
   <g id="matplotlib.axis_2">
    <g id="ytick_1">
     <g id="line2d_7">
      <defs>
       <path d="M 0 0 
L -3.5 0 
" id="ma8c2f07818" style="stroke:#000000;stroke-width:0.8;"/>
      </defs>
      <g>
       <use style="stroke:#000000;stroke-width:0.8;" x="50.465625" xlink:href="#ma8c2f07818" y="282.799219"/>
      </g>
     </g>
     <g id="text_8">
      <!-- 0.00 -->
      <defs>
       <path d="M 10.6875 12.40625 
L 21 12.40625 
L 21 0 
L 10.6875 0 
z
" id="DejaVuSans-46"/>
      </defs>
      <g transform="translate(21.2 286.598437)scale(0.1 -0.1)">
       <use xlink:href="#DejaVuSans-48"/>
       <use x="63.623047" xlink:href="#DejaVuSans-46"/>
       <use x="95.410156" xlink:href="#DejaVuSans-48"/>
       <use x="159.033203" xlink:href="#DejaVuSans-48"/>
      </g>
     </g>
    </g>
    <g id="ytick_2">
     <g id="line2d_8">
      <g>
       <use style="stroke:#000000;stroke-width:0.8;" x="50.465625" xlink:href="#ma8c2f07818" y="237.499219"/>
      </g>
     </g>
     <g id="text_9">
      <!-- 0.05 -->
      <defs>
       <path d="M 10.796875 72.90625 
L 49.515625 72.90625 
L 49.515625 64.59375 
L 19.828125 64.59375 
L 19.828125 46.734375 
Q 21.96875 47.46875 24.109375 47.828125 
Q 26.265625 48.1875 28.421875 48.1875 
Q 40.625 48.1875 47.75 41.5 
Q 54.890625 34.8125 54.890625 23.390625 
Q 54.890625 11.625 47.5625 5.09375 
Q 40.234375 -1.421875 26.90625 -1.421875 
Q 22.3125 -1.421875 17.546875 -0.640625 
Q 12.796875 0.140625 7.71875 1.703125 
L 7.71875 11.625 
Q 12.109375 9.234375 16.796875 8.0625 
Q 21.484375 6.890625 26.703125 6.890625 
Q 35.15625 6.890625 40.078125 11.328125 
Q 45.015625 15.765625 45.015625 23.390625 
Q 45.015625 31 40.078125 35.4375 
Q 35.15625 39.890625 26.703125 39.890625 
Q 22.75 39.890625 18.8125 39.015625 
Q 14.890625 38.140625 10.796875 36.28125 
z
" id="DejaVuSans-53"/>
      </defs>
      <g transform="translate(21.2 241.298437)scale(0.1 -0.1)">
       <use xlink:href="#DejaVuSans-48"/>
       <use x="63.623047" xlink:href="#DejaVuSans-46"/>
       <use x="95.410156" xlink:href="#DejaVuSans-48"/>
       <use x="159.033203" xlink:href="#DejaVuSans-53"/>
      </g>
     </g>
    </g>
    <g id="ytick_3">
     <g id="line2d_9">
      <g>
       <use style="stroke:#000000;stroke-width:0.8;" x="50.465625" xlink:href="#ma8c2f07818" y="192.199219"/>
      </g>
     </g>
     <g id="text_10">
      <!-- 0.10 -->
      <g transform="translate(21.2 195.998437)scale(0.1 -0.1)">
       <use xlink:href="#DejaVuSans-48"/>
       <use x="63.623047" xlink:href="#DejaVuSans-46"/>
       <use x="95.410156" xlink:href="#DejaVuSans-49"/>
       <use x="159.033203" xlink:href="#DejaVuSans-48"/>
      </g>
     </g>
    </g>
    <g id="ytick_4">
     <g id="line2d_10">
      <g>
       <use style="stroke:#000000;stroke-width:0.8;" x="50.465625" xlink:href="#ma8c2f07818" y="146.899219"/>
      </g>
     </g>
     <g id="text_11">
      <!-- 0.15 -->
      <g transform="translate(21.2 150.698437)scale(0.1 -0.1)">
       <use xlink:href="#DejaVuSans-48"/>
       <use x="63.623047" xlink:href="#DejaVuSans-46"/>
       <use x="95.410156" xlink:href="#DejaVuSans-49"/>
       <use x="159.033203" xlink:href="#DejaVuSans-53"/>
      </g>
     </g>
    </g>
    <g id="ytick_5">
     <g id="line2d_11">
      <g>
       <use style="stroke:#000000;stroke-width:0.8;" x="50.465625" xlink:href="#ma8c2f07818" y="101.599219"/>
      </g>
     </g>
     <g id="text_12">
      <!-- 0.20 -->
      <g transform="translate(21.2 105.398438)scale(0.1 -0.1)">
       <use xlink:href="#DejaVuSans-48"/>
       <use x="63.623047" xlink:href="#DejaVuSans-46"/>
       <use x="95.410156" xlink:href="#DejaVuSans-50"/>
       <use x="159.033203" xlink:href="#DejaVuSans-48"/>
      </g>
     </g>
    </g>
    <g id="ytick_6">
     <g id="line2d_12">
      <g>
       <use style="stroke:#000000;stroke-width:0.8;" x="50.465625" xlink:href="#ma8c2f07818" y="56.299219"/>
      </g>
     </g>
     <g id="text_13">
      <!-- 0.25 -->
      <g transform="translate(21.2 60.098438)scale(0.1 -0.1)">
       <use xlink:href="#DejaVuSans-48"/>
       <use x="63.623047" xlink:href="#DejaVuSans-46"/>
       <use x="95.410156" xlink:href="#DejaVuSans-50"/>
       <use x="159.033203" xlink:href="#DejaVuSans-53"/>
      </g>
     </g>
    </g>
    <g id="ytick_7">
     <g id="line2d_13">
      <g>
       <use style="stroke:#000000;stroke-width:0.8;" x="50.465625" xlink:href="#ma8c2f07818" y="10.999219"/>
      </g>
     </g>
     <g id="text_14">
      <!-- 0.30 -->
      <defs>
       <path d="M 40.578125 39.3125 
Q 47.65625 37.796875 51.625 33 
Q 55.609375 28.21875 55.609375 21.1875 
Q 55.609375 10.40625 48.1875 4.484375 
Q 40.765625 -1.421875 27.09375 -1.421875 
Q 22.515625 -1.421875 17.65625 -0.515625 
Q 12.796875 0.390625 7.625 2.203125 
L 7.625 11.71875 
Q 11.71875 9.328125 16.59375 8.109375 
Q 21.484375 6.890625 26.8125 6.890625 
Q 36.078125 6.890625 40.9375 10.546875 
Q 45.796875 14.203125 45.796875 21.1875 
Q 45.796875 27.640625 41.28125 31.265625 
Q 36.765625 34.90625 28.71875 34.90625 
L 20.21875 34.90625 
L 20.21875 43.015625 
L 29.109375 43.015625 
Q 36.375 43.015625 40.234375 45.921875 
Q 44.09375 48.828125 44.09375 54.296875 
Q 44.09375 59.90625 40.109375 62.90625 
Q 36.140625 65.921875 28.71875 65.921875 
Q 24.65625 65.921875 20.015625 65.03125 
Q 15.375 64.15625 9.8125 62.3125 
L 9.8125 71.09375 
Q 15.4375 72.65625 20.34375 73.4375 
Q 25.25 74.21875 29.59375 74.21875 
Q 40.828125 74.21875 47.359375 69.109375 
Q 53.90625 64.015625 53.90625 55.328125 
Q 53.90625 49.265625 50.4375 45.09375 
Q 46.96875 40.921875 40.578125 39.3125 
z
" id="DejaVuSans-51"/>
      </defs>
      <g transform="translate(21.2 14.798437)scale(0.1 -0.1)">
       <use xlink:href="#DejaVuSans-48"/>
       <use x="63.623047" xlink:href="#DejaVuSans-46"/>
       <use x="95.410156" xlink:href="#DejaVuSans-51"/>
       <use x="159.033203" xlink:href="#DejaVuSans-48"/>
      </g>
     </g>
    </g>
    <g id="text_15">
     <!-- |B| [T] -->
     <defs>
      <path d="M 21 76.421875 
L 21 -23.578125 
L 12.703125 -23.578125 
L 12.703125 76.421875 
z
" id="DejaVuSans-124"/>
      <path d="M 19.671875 34.8125 
L 19.671875 8.109375 
L 35.5 8.109375 
Q 43.453125 8.109375 47.28125 11.40625 
Q 51.125 14.703125 51.125 21.484375 
Q 51.125 28.328125 47.28125 31.5625 
Q 43.453125 34.8125 35.5 34.8125 
z
M 19.671875 64.796875 
L 19.671875 42.828125 
L 34.28125 42.828125 
Q 41.5 42.828125 45.03125 45.53125 
Q 48.578125 48.25 48.578125 53.8125 
Q 48.578125 59.328125 45.03125 62.0625 
Q 41.5 64.796875 34.28125 64.796875 
z
M 9.8125 72.90625 
L 35.015625 72.90625 
Q 46.296875 72.90625 52.390625 68.21875 
Q 58.5 63.53125 58.5 54.890625 
Q 58.5 48.1875 55.375 44.234375 
Q 52.25 40.28125 46.1875 39.3125 
Q 53.46875 37.75 57.5 32.78125 
Q 61.53125 27.828125 61.53125 20.40625 
Q 61.53125 10.640625 54.890625 5.3125 
Q 48.25 0 35.984375 0 
L 9.8125 0 
z
" id="DejaVuSans-66"/>
      <path d="M 8.59375 75.984375 
L 29.296875 75.984375 
L 29.296875 69 
L 17.578125 69 
L 17.578125 -6.203125 
L 29.296875 -6.203125 
L 29.296875 -13.1875 
L 8.59375 -13.1875 
z
" id="DejaVuSans-91"/>
      <path d="M -0.296875 72.90625 
L 61.375 72.90625 
L 61.375 64.59375 
L 35.5 64.59375 
L 35.5 0 
L 25.59375 0 
L 25.59375 64.59375 
L -0.296875 64.59375 
z
" id="DejaVuSans-84"/>
      <path d="M 30.421875 75.984375 
L 30.421875 -13.1875 
L 9.71875 -13.1875 
L 9.71875 -6.203125 
L 21.390625 -6.203125 
L 21.390625 69 
L 9.71875 69 
L 9.71875 75.984375 
z
" id="DejaVuSans-93"/>
     </defs>
     <g transform="translate(14.842188 162.242969)rotate(-90)scale(0.1 -0.1)">
      <use xlink:href="#DejaVuSans-124"/>
      <use x="33.691406" xlink:href="#DejaVuSans-66"/>
      <use x="102.294922" xlink:href="#DejaVuSans-124"/>
      <use x="135.986328" xlink:href="#DejaVuSans-32"/>
      <use x="167.773438" xlink:href="#DejaVuSans-91"/>
      <use x="206.787109" xlink:href="#DejaVuSans-84"/>
      <use x="267.871094" xlink:href="#DejaVuSans-93"/>
     </g>
    </g>
   </g>
   <g id="line2d_14">
    <path clip-path="url(#p6d9fac36ac)" d="M 63.419196 172.038422 
L 65.363528 163.27566 
L 66.65975 156.578631 
L 69.252192 146.16953 
L 69.900303 142.772921 
L 71.196524 137.562501 
L 75.085188 123.089517 
L 76.381409 118.645852 
L 79.621963 108.665456 
L 82.862516 99.623666 
L 84.806848 95.101177 
L 85.454958 93.48967 
L 87.39929 89.519026 
L 88.695512 86.644729 
L 90.639844 83.169815 
L 93.232286 78.89435 
L 95.824729 75.061702 
L 99.065282 70.81187 
L 100.361503 69.40452 
L 101.657725 67.934891 
L 104.898278 64.772082 
L 107.49072 62.614044 
L 110.083163 60.587409 
L 112.027495 59.332738 
L 116.564269 56.76369 
L 120.452933 54.950785 
L 122.397265 54.191237 
L 129.526482 52.176298 
L 132.118925 51.716811 
L 136.007589 51.229224 
L 139.248142 51.041183 
L 143.136806 51.072412 
L 147.025469 51.375593 
L 149.617912 51.749198 
L 152.858465 52.364445 
L 155.450908 53.015643 
L 159.339572 54.291745 
L 162.580125 55.632935 
L 167.76501 58.237168 
L 170.357453 59.801213 
L 174.894227 63.240858 
L 180.079112 68.133897 
L 181.375334 69.592323 
L 182.671555 71.240979 
L 183.319666 71.848109 
L 184.615887 73.540448 
L 187.85644 78.163707 
L 192.393215 85.865056 
L 194.337547 89.75578 
L 197.5781 96.860951 
L 198.874321 100.400636 
L 202.114874 108.907455 
L 203.411096 113.014509 
L 207.299759 125.765427 
L 209.244091 132.924615 
L 211.188423 140.880982 
L 211.836534 143.255418 
L 215.077087 157.871376 
L 216.373309 163.285717 
L 224.798747 203.698364 
L 225.446858 207.439745 
L 227.39119 214.503866 
L 228.687411 221.475918 
L 231.279853 233.036684 
L 233.224185 240.725742 
L 235.168517 248.706393 
L 237.112849 255.717011 
L 237.76096 258.527338 
L 239.705292 264.956637 
L 240.353402 266.559522 
L 241.001513 267.704267 
L 241.649624 268.466806 
L 242.297734 269.60184 
L 242.945845 269.652788 
L 243.593956 269.129958 
L 244.242066 268.390963 
L 244.890177 267.336786 
L 246.186398 263.983988 
L 248.778841 255.694041 
L 251.371284 245.617976 
L 252.019394 243.313982 
L 256.556169 223.562632 
L 257.85239 217.771148 
L 261.741054 199.475273 
L 263.685386 190.985859 
L 265.629717 181.302014 
L 266.277828 178.408782 
L 267.574049 171.670023 
L 268.870271 165.980377 
L 272.758935 148.431234 
L 274.055156 143.071046 
L 275.351377 137.712153 
L 279.888152 120.678181 
L 285.073037 104.661694 
L 286.369258 101.632653 
L 287.665479 97.953046 
L 292.850365 86.659682 
L 294.146586 84.581418 
L 296.739028 79.878714 
L 300.627692 74.232109 
L 305.164467 68.612714 
L 309.053131 64.816575 
L 310.349352 63.790867 
L 312.293684 62.039122 
L 314.886127 60.181643 
L 319.422901 57.373866 
L 323.311565 55.448191 
L 326.552118 54.211865 
L 329.144561 53.302193 
L 335.625667 51.792392 
L 341.458663 51.122792 
L 344.699216 51.006526 
L 347.939769 51.086752 
L 350.532212 51.285668 
L 354.420876 51.79462 
L 357.013318 52.349179 
L 360.901982 53.350716 
L 367.383089 55.769279 
L 368.67931 56.489876 
L 370.623642 57.419879 
L 373.216086 58.966383 
L 375.160418 60.293095 
L 377.752858 62.072989 
L 382.289634 66.110125 
L 384.233966 68.075764 
L 388.770739 73.398271 
L 392.011294 78.09123 
L 393.955626 80.952258 
L 399.788622 92.147229 
L 404.325394 103.3615 
L 406.917838 110.459955 
L 408.214058 114.971795 
L 409.510282 118.731717 
L 410.15839 120.739435 
L 412.102722 127.903737 
L 412.750834 130.020296 
L 414.047054 135.500584 
L 414.695166 137.887784 
L 416.639498 145.9801 
L 418.58383 154.269433 
L 419.88005 160.11876 
L 421.176274 165.842861 
L 422.472494 172.182226 
L 423.120606 175.093545 
L 423.768714 178.784117 
L 426.361158 190.924265 
L 434.138486 226.78555 
L 436.082818 234.369717 
L 436.730926 237.012836 
L 437.379038 237.937685 
L 438.02715 245.182594 
L 439.32337 246.978467 
L 439.971482 249.196827 
L 441.267702 254.847416 
L 444.508254 263.800557 
L 445.156366 265.059774 
L 445.804478 266.017801 
L 446.452586 266.710583 
L 447.100698 267.072985 
L 447.74881 267.044794 
L 448.396918 266.459803 
L 449.04503 265.354253 
L 450.989362 261.013173 
L 452.285582 257.273473 
L 454.878026 248.909222 
L 456.822358 242.255949 
L 458.118578 236.375108 
L 462.007242 217.863092 
L 464.599686 205.161467 
L 471.728902 169.524875 
L 477.561898 144.613031 
L 480.154341 135.051524 
L 482.746782 124.193571 
L 484.691114 117.653265 
L 489.876001 101.837705 
L 491.820333 97.05294 
L 497.653329 85.353291 
L 500.893881 79.760038 
L 504.134434 74.863783 
L 504.782545 74.348181 
L 505.430657 74.092276 
L 506.078766 71.615135 
L 506.726877 71.287948 
L 507.374989 70.798376 
L 510.615541 67.279556 
L 511.263653 66.880709 
L 511.911762 66.66025 
L 512.559873 64.916241 
L 513.207985 64.704782 
L 513.856094 64.337414 
L 515.800426 62.679755 
L 518.392869 60.470484 
L 520.985313 58.888072 
L 528.114529 55.056106 
L 530.058861 54.446752 
L 532.651302 53.6153 
L 535.891857 52.545444 
L 538.484298 51.945643 
L 539.780521 51.632142 
L 547.557849 51.001012 
L 552.742733 51.022934 
L 558.575729 51.812585 
L 562.464393 52.537694 
L 566.353057 53.740248 
L 572.186053 56.052402 
L 575.426605 57.821673 
L 578.019049 59.489791 
L 578.66716 59.843518 
L 579.963381 60.102315 
L 580.611489 61.433972 
L 581.259601 61.615854 
L 583.203933 63.221697 
L 586.444485 66.060255 
L 588.388817 68.028596 
L 589.685041 69.43892 
L 590.981261 70.78377 
L 592.925593 73.451518 
L 594.869925 75.915821 
L 596.814257 78.99276 
L 598.110477 80.8576 
L 599.4067 83.37191 
L 601.351032 86.697998 
L 602.647253 89.353687 
L 606.535917 98.281094 
L 609.12836 104.920077 
L 610.424581 108.604008 
L 611.720801 112.238823 
L 615.609465 125.41064 
L 616.905688 130.424647 
L 617.553797 132.533745 
L 620.146241 142.960051 
L 620.794352 145.253598 
L 624.034904 159.464572 
L 625.979236 169.408527 
L 627.275457 174.243271 
L 631.812232 196.460022 
L 639.58956 231.967541 
L 641.533892 239.769619 
L 644.774445 252.502215 
L 648.014997 263.270876 
L 649.31122 266.005261 
L 649.959329 267.165655 
L 650.60744 267.980501 
L 651.255552 268.30164 
L 651.903661 268.279912 
L 652.551772 267.718516 
L 653.199884 266.429579 
L 655.144216 261.405726 
L 656.440436 257.123248 
L 658.384768 250.455375 
L 661.625321 237.864105 
L 664.865876 223.431588 
L 665.513985 220.997585 
L 667.458317 211.268259 
L 668.106428 207.972874 
L 670.698872 197.287711 
L 673.939424 181.008333 
L 675.235644 175.557134 
L 677.179976 166.091598 
L 677.828088 163.634411 
L 679.124308 157.356702 
L 680.420529 151.432873 
L 683.012972 140.280765 
L 683.661084 137.636353 
L 684.957304 133.176412 
L 686.901636 125.551639 
L 688.197857 120.90599 
L 692.734632 106.693853 
L 694.030852 103.289162 
L 695.327076 99.822709 
L 697.919516 93.819192 
L 699.863848 89.496295 
L 701.80818 86.012427 
L 702.456292 84.883363 
L 703.104404 84.035085 
L 703.752512 83.674443 
L 704.400624 79.89319 
L 705.696844 79.110671 
L 706.344956 78.367078 
L 711.52984 71.063239 
L 716.066616 66.092741 
L 719.307168 63.514426 
L 723.843944 59.460068 
L 725.140164 58.600413 
L 732.26938 55.046122 
L 740.69482 52.507182 
L 744.583484 51.637298 
L 752.360812 50.974947 
L 760.13814 51.443341 
L 764.026804 51.949974 
L 768.563579 53.054045 
L 770.507911 53.669313 
L 771.804131 53.812106 
L 772.452243 54.494099 
L 773.100352 54.596382 
L 775.044684 55.364585 
L 776.340907 55.939866 
L 776.340907 55.939866 
" style="fill:none;stroke:#008000;stroke-linecap:square;stroke-width:1.5;"/>
   </g>
   <g id="line2d_15">
    <path clip-path="url(#p6d9fac36ac)" d="M 64.73883 -1 
L 65.363528 13.940807 
L 66.011639 26.048343 
L 67.30786 38.102466 
L 68.604082 45.634836 
L 69.252192 49.155117 
L 69.900303 51.725242 
L 71.196524 55.248733 
L 71.844635 56.887765 
L 72.492745 57.684651 
L 73.140856 58.689142 
L 74.437077 59.096227 
L 75.085188 59.976366 
L 77.02952 61.909831 
L 78.973852 62.397617 
L 80.270073 62.268442 
L 81.566294 61.79426 
L 83.510626 61.847459 
L 84.158737 61.690009 
L 84.806848 61.416843 
L 86.103069 61.168608 
L 86.75118 60.755049 
L 89.343622 59.915814 
L 89.991733 59.694942 
L 91.936065 58.745956 
L 93.232286 58.184696 
L 94.528507 57.605882 
L 96.472839 56.915427 
L 97.769061 56.21444 
L 99.713393 55.390886 
L 104.898278 53.318461 
L 108.138831 52.149021 
L 109.435052 51.710237 
L 110.083163 51.557639 
L 111.379384 51.031914 
L 112.675605 50.714103 
L 113.971827 50.256164 
L 115.268048 49.955619 
L 116.564269 49.552939 
L 119.156712 48.945384 
L 123.045376 48.140894 
L 129.526482 47.170777 
L 134.063257 46.796269 
L 135.359478 46.778964 
L 136.655699 46.617275 
L 139.896252 46.601635 
L 144.433027 46.697747 
L 152.210355 47.389087 
L 161.283904 49.122568 
L 162.580125 49.496322 
L 164.524457 50.028939 
L 165.820678 50.376621 
L 173.598006 53.237341 
L 174.894227 53.922207 
L 176.838559 54.630347 
L 178.782891 55.715825 
L 180.079112 56.155526 
L 181.375334 56.988918 
L 183.967776 58.440076 
L 187.85644 60.839237 
L 189.152662 61.646142 
L 189.800772 61.946734 
L 192.393215 63.832593 
L 193.041326 64.047048 
L 195.633768 66.050856 
L 196.929989 66.788531 
L 198.874321 68.314963 
L 199.522432 68.672259 
L 200.170542 68.870204 
L 200.818653 69.263323 
L 201.466764 69.868735 
L 202.114874 70.317912 
L 204.059206 71.163899 
L 205.355427 72.132549 
L 206.651649 72.923701 
L 208.595981 73.351316 
L 209.892202 73.355218 
L 210.540313 73.662294 
L 211.188423 73.779236 
L 211.836534 74.043755 
L 213.132755 74.231476 
L 213.780866 74.155051 
L 214.428977 74.196177 
L 215.077087 75.821996 
L 215.725198 76.421052 
L 216.373309 78.555673 
L 217.66953 88.010136 
L 219.613862 108.590025 
L 224.150636 155.420241 
L 224.798747 160.164547 
L 228.0393 178.892865 
L 228.687411 182.209082 
L 231.279853 191.62666 
L 231.927964 193.8754 
L 233.224185 197.320655 
L 233.872296 199.280702 
L 235.168517 202.209019 
L 236.464738 204.703714 
L 237.76096 206.952634 
L 238.40907 207.79851 
L 239.705292 208.983567 
L 241.649624 210.279491 
L 242.297734 210.404906 
L 243.593956 210.39866 
L 244.242066 210.316231 
L 245.538288 209.784716 
L 247.48262 208.153258 
L 248.13073 207.320943 
L 249.426952 205.038828 
L 250.723173 202.404768 
L 252.019394 199.432672 
L 253.963726 194.149931 
L 255.259947 189.910972 
L 256.556169 185.018217 
L 257.85239 179.318426 
L 259.148611 172.588153 
L 260.444832 164.633628 
L 261.741054 155.407912 
L 262.389164 149.29695 
L 263.685386 141.340074 
L 265.629717 122.710523 
L 266.277828 117.539616 
L 266.925939 110.668681 
L 267.574049 101.084415 
L 268.22216 98.717136 
L 268.870271 97.703255 
L 269.518381 95.07913 
L 270.814603 87.777546 
L 272.110824 87.160102 
L 273.407045 84.817606 
L 274.055156 84.038408 
L 274.703267 82.755202 
L 275.351377 81.915105 
L 275.999488 82.202319 
L 276.647599 81.669939 
L 277.94382 80.388414 
L 278.591931 79.929847 
L 279.240041 79.711922 
L 281.832484 77.302102 
L 282.480594 76.705476 
L 283.776816 75.162226 
L 284.424926 74.837004 
L 285.073037 74.256805 
L 285.721148 74.070769 
L 286.369258 73.717134 
L 287.017369 73.136083 
L 288.31359 71.475978 
L 290.906033 69.648601 
L 292.202254 68.429878 
L 292.850365 67.640244 
L 293.498475 67.375755 
L 294.146586 66.906782 
L 294.794696 66.258881 
L 295.442807 65.91666 
L 298.68336 63.193505 
L 300.627692 62.074275 
L 302.572024 60.687177 
L 303.220135 60.39181 
L 305.164467 58.946604 
L 306.460688 58.27254 
L 308.40502 57.252351 
L 310.997463 55.811181 
L 316.182348 53.496119 
L 317.478569 53.011024 
L 318.12668 52.708061 
L 319.422901 52.393744 
L 320.719122 51.818289 
L 323.311565 51.081631 
L 326.552118 50.198362 
L 330.440782 49.379887 
L 335.625667 48.578498 
L 344.051106 48.068414 
L 348.58788 48.179398 
L 351.828433 48.429879 
L 357.013318 49.095438 
L 361.550093 50.016163 
L 364.790646 50.893162 
L 368.67931 52.115082 
L 375.808526 55.162102 
L 378.40097 56.562807 
L 379.049082 57.039383 
L 380.345302 57.60556 
L 381.641522 58.504002 
L 383.585854 59.553351 
L 386.178298 61.678697 
L 388.12263 63.075178 
L 389.41885 64.127514 
L 391.363182 65.851903 
L 392.011294 66.32708 
L 396.548067 70.824062 
L 397.196178 71.448554 
L 399.14051 73.940936 
L 399.788622 74.632777 
L 401.084842 76.439302 
L 402.381062 77.831885 
L 404.973506 81.618035 
L 405.621618 82.638916 
L 406.917838 83.939921 
L 408.214058 86.323178 
L 409.510282 89.170999 
L 410.15839 90.228577 
L 410.806502 90.989683 
L 411.454614 92.277643 
L 412.750834 95.494572 
L 413.398946 97.384524 
L 415.343278 101.286847 
L 417.28761 107.76085 
L 419.231942 115.08797 
L 420.528162 121.708955 
L 421.824382 128.997756 
L 422.472494 132.11649 
L 425.064938 148.955935 
L 426.361158 158.104932 
L 427.657378 164.894284 
L 429.60171 176.253908 
L 431.546042 185.988384 
L 432.842262 192.128867 
L 435.434706 202.360387 
L 437.379038 207.615544 
L 438.02715 210.402037 
L 439.971482 213.89491 
L 441.267702 216.607585 
L 442.563922 218.966357 
L 443.860146 220.401303 
L 444.508254 220.837268 
L 445.804478 221.359979 
L 447.74881 221.705544 
L 448.396918 221.558437 
L 449.04503 221.267571 
L 449.693142 220.37369 
L 450.989362 219.382416 
L 451.637474 218.759922 
L 454.229914 214.142884 
L 455.526137 211.746316 
L 456.822358 208.663098 
L 457.470469 206.846373 
L 458.76669 202.345486 
L 460.06291 197.054459 
L 462.007242 190.746856 
L 463.951574 181.056204 
L 466.544018 165.567433 
L 469.136461 152.505473 
L 469.78457 149.134771 
L 470.432682 144.839283 
L 472.377014 135.382534 
L 474.321346 123.646927 
L 474.969457 121.358354 
L 476.265677 117.672173 
L 476.913789 115.167037 
L 478.210009 108.66747 
L 478.858121 107.136845 
L 480.802453 104.291482 
L 481.450562 102.178658 
L 482.098673 99.570836 
L 482.746782 97.451747 
L 484.691114 94.517686 
L 485.339226 93.109536 
L 486.635446 89.236369 
L 487.283558 88.393137 
L 488.579778 87.09314 
L 489.22789 86.353473 
L 491.820333 81.883059 
L 495.708997 76.69991 
L 497.653329 74.002909 
L 499.597661 72.003714 
L 500.893881 70.447684 
L 504.782545 66.669006 
L 505.430657 66.427721 
L 506.078766 64.931391 
L 506.726877 64.747015 
L 507.374989 64.380359 
L 508.671209 63.179013 
L 510.615541 61.646149 
L 511.263653 61.465216 
L 511.911762 61.426179 
L 512.559873 59.962027 
L 513.207985 59.866849 
L 515.152317 58.604501 
L 517.744758 56.94974 
L 523.577753 54.281781 
L 524.873977 53.677113 
L 526.170197 53.065777 
L 530.706973 51.830579 
L 532.651302 51.152516 
L 537.836189 50.177878 
L 541.076741 49.653994 
L 546.909737 49.228268 
L 553.390845 49.400015 
L 557.279509 49.757374 
L 561.168173 50.358746 
L 564.408725 51.154921 
L 566.353057 51.696786 
L 567.649277 52.090352 
L 570.241721 52.737393 
L 576.074717 55.360674 
L 578.66716 56.712723 
L 579.963381 56.93626 
L 580.611489 58.181462 
L 581.259601 58.332933 
L 581.907713 58.617448 
L 587.740709 62.975453 
L 589.036929 64.027767 
L 592.277481 67.090732 
L 595.518037 70.574281 
L 597.462369 72.953966 
L 598.758589 74.547701 
L 599.4067 75.293877 
L 602.647253 80.071624 
L 603.943473 82.122543 
L 605.239696 84.249176 
L 605.887805 85.625238 
L 607.832137 89.007246 
L 609.776469 93.213366 
L 611.072692 96.557706 
L 612.368913 99.251607 
L 613.017024 101.22325 
L 614.313245 103.88994 
L 615.609465 108.23278 
L 616.905688 111.938902 
L 620.146241 123.122789 
L 624.683016 142.852 
L 625.979236 149.410025 
L 626.627348 153.233279 
L 628.57168 162.564568 
L 629.8679 169.547121 
L 631.164121 175.981865 
L 633.756564 188.731528 
L 635.700896 197.706352 
L 637.645228 205.773806 
L 639.58956 213.469317 
L 640.885781 216.653736 
L 641.533892 218.843849 
L 642.182001 221.462724 
L 643.478224 225.024154 
L 645.422556 229.267768 
L 646.718776 231.698532 
L 648.014997 233.767234 
L 649.31122 235.126484 
L 650.60744 235.562505 
L 651.903661 235.681096 
L 653.199884 235.171275 
L 653.847993 234.633909 
L 655.144216 233.131822 
L 656.440436 231.232277 
L 657.736657 229.109578 
L 659.680989 224.146773 
L 660.3291 222.965992 
L 660.977212 221.186666 
L 663.569653 212.412021 
L 664.865876 207.042213 
L 666.162096 202.181189 
L 668.75454 191.851048 
L 670.05076 185.263968 
L 671.34698 177.627794 
L 673.291312 169.341949 
L 673.939424 165.926131 
L 674.587536 161.795279 
L 676.531868 153.796205 
L 677.179976 150.131696 
L 678.4762 144.552777 
L 679.124308 140.675159 
L 679.77242 137.865682 
L 680.420529 135.719576 
L 681.716752 130.236022 
L 684.309193 120.771531 
L 687.549748 110.360043 
L 691.438412 100.140519 
L 695.327076 91.514203 
L 696.623296 88.956403 
L 698.567628 85.21864 
L 700.51196 81.797637 
L 702.456292 79.042253 
L 703.104404 78.345907 
L 703.752512 77.942733 
L 704.400624 75.532642 
L 705.048736 75.071693 
L 706.344956 73.538598 
L 708.289288 71.203237 
L 710.881732 68.210288 
L 712.177952 67.20001 
L 716.066616 63.207617 
L 719.307168 61.038306 
L 722.547724 58.58198 
L 723.843944 57.714554 
L 735.509936 52.663743 
L 737.454268 52.202364 
L 745.879704 50.465591 
L 748.472148 50.285206 
L 753.008923 50.122341 
L 755.601364 50.173644 
L 757.545696 50.251311 
L 760.786251 50.577521 
L 765.971136 51.543706 
L 770.507911 52.837937 
L 771.804131 52.980675 
L 772.452243 53.60232 
L 773.100352 53.657582 
L 775.692795 54.714011 
L 776.340907 54.999619 
L 776.340907 54.999619 
" style="fill:none;stroke:#ff0000;stroke-linecap:square;stroke-width:1.5;"/>
   </g>
   <g id="patch_3">
    <path d="M 50.465625 282.799219 
L 50.465625 10.999219 
" style="fill:none;stroke:#000000;stroke-linecap:square;stroke-linejoin:miter;stroke-width:0.8;"/>
   </g>
   <g id="patch_4">
    <path d="M 775.865625 282.799219 
L 775.865625 10.999219 
" style="fill:none;stroke:#000000;stroke-linecap:square;stroke-linejoin:miter;stroke-width:0.8;"/>
   </g>
   <g id="patch_5">
    <path d="M 50.465625 282.799219 
L 775.865625 282.799219 
" style="fill:none;stroke:#000000;stroke-linecap:square;stroke-linejoin:miter;stroke-width:0.8;"/>
   </g>
   <g id="patch_6">
    <path d="M 50.465625 10.999219 
L 775.865625 10.999219 
" style="fill:none;stroke:#000000;stroke-linecap:square;stroke-linejoin:miter;stroke-width:0.8;"/>
   </g>
   <g id="legend_1">
    <g id="patch_7">
     <path d="M 57.465625 277.799219 
L 198.167188 277.799219 
Q 200.167188 277.799219 200.167188 275.799219 
L 200.167188 247.442969 
Q 200.167188 245.442969 198.167188 245.442969 
L 57.465625 245.442969 
Q 55.465625 245.442969 55.465625 247.442969 
L 55.465625 275.799219 
Q 55.465625 277.799219 57.465625 277.799219 
z
" style="fill:#ffffff;opacity:0.8;stroke:#cccccc;stroke-linejoin:miter;"/>
    </g>
    <g id="line2d_16">
     <path d="M 59.465625 253.541406 
L 79.465625 253.541406 
" style="fill:none;stroke:#008000;stroke-linecap:square;stroke-width:1.5;"/>
    </g>
    <g id="line2d_17"/>
    <g id="text_16">
     <!-- 1 Horizontal -->
     <defs>
      <path d="M 9.8125 72.90625 
L 19.671875 72.90625 
L 19.671875 43.015625 
L 55.515625 43.015625 
L 55.515625 72.90625 
L 65.375 72.90625 
L 65.375 0 
L 55.515625 0 
L 55.515625 34.71875 
L 19.671875 34.71875 
L 19.671875 0 
L 9.8125 0 
z
" id="DejaVuSans-72"/>
      <path d="M 5.515625 54.6875 
L 48.1875 54.6875 
L 48.1875 46.484375 
L 14.40625 7.171875 
L 48.1875 7.171875 
L 48.1875 0 
L 4.296875 0 
L 4.296875 8.203125 
L 38.09375 47.515625 
L 5.515625 47.515625 
z
" id="DejaVuSans-122"/>
      <path d="M 34.28125 27.484375 
Q 23.390625 27.484375 19.1875 25 
Q 14.984375 22.515625 14.984375 16.5 
Q 14.984375 11.71875 18.140625 8.90625 
Q 21.296875 6.109375 26.703125 6.109375 
Q 34.1875 6.109375 38.703125 11.40625 
Q 43.21875 16.703125 43.21875 25.484375 
L 43.21875 27.484375 
z
M 52.203125 31.203125 
L 52.203125 0 
L 43.21875 0 
L 43.21875 8.296875 
Q 40.140625 3.328125 35.546875 0.953125 
Q 30.953125 -1.421875 24.3125 -1.421875 
Q 15.921875 -1.421875 10.953125 3.296875 
Q 6 8.015625 6 15.921875 
Q 6 25.140625 12.171875 29.828125 
Q 18.359375 34.515625 30.609375 34.515625 
L 43.21875 34.515625 
L 43.21875 35.40625 
Q 43.21875 41.609375 39.140625 45 
Q 35.0625 48.390625 27.6875 48.390625 
Q 23 48.390625 18.546875 47.265625 
Q 14.109375 46.140625 10.015625 43.890625 
L 10.015625 52.203125 
Q 14.9375 54.109375 19.578125 55.046875 
Q 24.21875 56 28.609375 56 
Q 40.484375 56 46.34375 49.84375 
Q 52.203125 43.703125 52.203125 31.203125 
z
" id="DejaVuSans-97"/>
      <path d="M 9.421875 75.984375 
L 18.40625 75.984375 
L 18.40625 0 
L 9.421875 0 
z
" id="DejaVuSans-108"/>
     </defs>
     <g transform="translate(87.465625 257.041406)scale(0.1 -0.1)">
      <use xlink:href="#DejaVuSans-49"/>
      <use x="63.623047" xlink:href="#DejaVuSans-32"/>
      <use x="95.410156" xlink:href="#DejaVuSans-72"/>
      <use x="170.605469" xlink:href="#DejaVuSans-111"/>
      <use x="231.787109" xlink:href="#DejaVuSans-114"/>
      <use x="272.900391" xlink:href="#DejaVuSans-105"/>
      <use x="300.683594" xlink:href="#DejaVuSans-122"/>
      <use x="353.173828" xlink:href="#DejaVuSans-111"/>
      <use x="414.355469" xlink:href="#DejaVuSans-110"/>
      <use x="477.734375" xlink:href="#DejaVuSans-116"/>
      <use x="516.943359" xlink:href="#DejaVuSans-97"/>
      <use x="578.222656" xlink:href="#DejaVuSans-108"/>
     </g>
    </g>
    <g id="line2d_18">
     <path d="M 59.465625 268.219531 
L 79.465625 268.219531 
" style="fill:none;stroke:#ff0000;stroke-linecap:square;stroke-width:1.5;"/>
    </g>
    <g id="line2d_19"/>
    <g id="text_17">
     <!-- 2 Magnetedge-Middle -->
     <defs>
      <path d="M 9.8125 72.90625 
L 24.515625 72.90625 
L 43.109375 23.296875 
L 61.8125 72.90625 
L 76.515625 72.90625 
L 76.515625 0 
L 66.890625 0 
L 66.890625 64.015625 
L 48.09375 14.015625 
L 38.1875 14.015625 
L 19.390625 64.015625 
L 19.390625 0 
L 9.8125 0 
z
" id="DejaVuSans-77"/>
      <path d="M 45.40625 46.390625 
L 45.40625 75.984375 
L 54.390625 75.984375 
L 54.390625 0 
L 45.40625 0 
L 45.40625 8.203125 
Q 42.578125 3.328125 38.25 0.953125 
Q 33.9375 -1.421875 27.875 -1.421875 
Q 17.96875 -1.421875 11.734375 6.484375 
Q 5.515625 14.40625 5.515625 27.296875 
Q 5.515625 40.1875 11.734375 48.09375 
Q 17.96875 56 27.875 56 
Q 33.9375 56 38.25 53.625 
Q 42.578125 51.265625 45.40625 46.390625 
z
M 14.796875 27.296875 
Q 14.796875 17.390625 18.875 11.75 
Q 22.953125 6.109375 30.078125 6.109375 
Q 37.203125 6.109375 41.296875 11.75 
Q 45.40625 17.390625 45.40625 27.296875 
Q 45.40625 37.203125 41.296875 42.84375 
Q 37.203125 48.484375 30.078125 48.484375 
Q 22.953125 48.484375 18.875 42.84375 
Q 14.796875 37.203125 14.796875 27.296875 
z
" id="DejaVuSans-100"/>
      <path d="M 4.890625 31.390625 
L 31.203125 31.390625 
L 31.203125 23.390625 
L 4.890625 23.390625 
z
" id="DejaVuSans-45"/>
     </defs>
     <g transform="translate(87.465625 271.719531)scale(0.1 -0.1)">
      <use xlink:href="#DejaVuSans-50"/>
      <use x="63.623047" xlink:href="#DejaVuSans-32"/>
      <use x="95.410156" xlink:href="#DejaVuSans-77"/>
      <use x="181.689453" xlink:href="#DejaVuSans-97"/>
      <use x="242.96875" xlink:href="#DejaVuSans-103"/>
      <use x="306.445312" xlink:href="#DejaVuSans-110"/>
      <use x="369.824219" xlink:href="#DejaVuSans-101"/>
      <use x="431.347656" xlink:href="#DejaVuSans-116"/>
      <use x="470.556641" xlink:href="#DejaVuSans-101"/>
      <use x="532.080078" xlink:href="#DejaVuSans-100"/>
      <use x="595.556641" xlink:href="#DejaVuSans-103"/>
      <use x="659.033203" xlink:href="#DejaVuSans-101"/>
      <use x="720.556641" xlink:href="#DejaVuSans-45"/>
      <use x="756.640625" xlink:href="#DejaVuSans-77"/>
      <use x="842.919922" xlink:href="#DejaVuSans-105"/>
      <use x="870.703125" xlink:href="#DejaVuSans-100"/>
      <use x="934.179688" xlink:href="#DejaVuSans-100"/>
      <use x="997.65625" xlink:href="#DejaVuSans-108"/>
      <use x="1025.439453" xlink:href="#DejaVuSans-101"/>
     </g>
    </g>
   </g>
  </g>
 </g>
 <defs>
  <clipPath id="p6d9fac36ac">
   <rect height="271.8" width="725.4" x="50.465625" y="10.999219"/>
  </clipPath>
 </defs>
</svg>
