<?xml version="1.0" encoding="UTF-8" standalone="no"?>
<svg
   xmlns:dc="http://purl.org/dc/elements/1.1/"
   xmlns:cc="http://creativecommons.org/ns#"
   xmlns:rdf="http://www.w3.org/1999/02/22-rdf-syntax-ns#"
   xmlns:svg="http://www.w3.org/2000/svg"
   xmlns="http://www.w3.org/2000/svg"
   viewBox="0 0 269.33334 250.66667"
   height="250.66667"
   width="269.33334"
   xml:space="preserve"
   id="svg2"
   version="1.1"><metadata
     id="metadata8"><rdf:RDF><cc:Work
         rdf:about=""><dc:format>image/svg+xml</dc:format><dc:type
           rdf:resource="http://purl.org/dc/dcmitype/StillImage" /><dc:title></dc:title></cc:Work></rdf:RDF></metadata><defs
     id="defs6" /><g
     transform="matrix(1.3333333,0,0,-1.3333333,0,250.66667)"
     id="g10"><g
       transform="scale(0.1)"
       id="g12"><path
         id="path14"
         style="fill:none;stroke:#000000;stroke-width:56.69290161;stroke-linecap:butt;stroke-linejoin:miter;stroke-miterlimit:4;stroke-dasharray:none;stroke-opacity:1"
         d="M 869.691,1800.74 V 375.738" /><path
         id="path16"
         style="fill:none;stroke:#000000;stroke-width:56.69290161;stroke-linecap:butt;stroke-linejoin:miter;stroke-miterlimit:4;stroke-dasharray:none;stroke-opacity:1"
         d="M 1469.69,1800.74 V 375.738" /><path
         id="path18"
         style="fill:#00e000;fill-opacity:1;fill-rule:nonzero;stroke:none"
         d="m 869.691,1523.24 c 193.979,-96.17 393.509,-103.79 599.999,0 v -187.5 c -195.98,97.19 -395.74,102.78 -599.999,0 z" /><path
         id="path20"
         style="fill:#df00e0;fill-opacity:1;fill-rule:nonzero;stroke:none"
         d="m 869.691,1163.24 c 199.569,-78.83 399.449,23.6 599.999,105 v -142.5 c -205.35,68.28 -404.61,-51.25 -599.999,-120 z" /><g
         transform="scale(10)"
         id="g22"><text
           id="text26"
           style="font-variant:normal;font-weight:normal;font-size:20px;font-family:'DejaVu Sans';-inkscape-font-specification:DejaVuSans;writing-mode:lr-tb;fill:#000000;fill-opacity:1;fill-rule:nonzero;stroke:none"
           transform="matrix(1,0,0,-1,3.63438,107.991)"><tspan
             id="tspan24"
             y="0"
             x="0 11.14 23.4 36.099998 48.400002">Lager</tspan></text>
<text
           id="text30"
           style="font-variant:normal;font-weight:normal;font-size:20px;font-family:'DejaVu Sans';-inkscape-font-specification:DejaVuSans;writing-mode:lr-tb;fill:#000000;fill-opacity:1;fill-rule:nonzero;stroke:none"
           transform="matrix(0,-1,-1,0,168.574,147.775)"><tspan
             id="tspan28"
             y="0"
             x="0 9.1801596 21.860161 30.08016 42.780159 48.34016 61.020161">Turbine</tspan></text>
</g><path
         id="path32"
         style="fill:none;stroke:#ff6600;stroke-width:56.69290161;stroke-linecap:butt;stroke-linejoin:miter;stroke-miterlimit:4;stroke-dasharray:none;stroke-opacity:1"
         d="M 1169.69,1875.74 V 263.242" /><path
         id="path34"
         style="fill:none;stroke:#000000;stroke-width:7.5;stroke-linecap:butt;stroke-linejoin:miter;stroke-miterlimit:4;stroke-dasharray:none;stroke-opacity:1"
         d="M 307.191,975.738 V 0.742188" /><path
         id="path36"
         style="fill:none;stroke:#000000;stroke-width:7.5;stroke-linecap:butt;stroke-linejoin:miter;stroke-miterlimit:4;stroke-dasharray:none;stroke-opacity:1"
         d="m 7.19141,975.738 h 637.5 v 300 h -637.5 z" /><path
         id="path38"
         style="fill:none;stroke:#000000;stroke-width:7.5;stroke-linecap:butt;stroke-linejoin:miter;stroke-miterlimit:4;stroke-dasharray:none;stroke-opacity:1"
         d="m 1657.19,713.238 h 225 v 787.5 h -225 z" /><path
         id="path40"
         style="fill:none;stroke:#000000;stroke-width:7.5;stroke-linecap:butt;stroke-linejoin:miter;stroke-miterlimit:4;stroke-dasharray:none;stroke-opacity:1"
         d="m 644.691,1125.74 h 225" /><path
         id="path42"
         style="fill:none;stroke:#000000;stroke-width:7.5;stroke-linecap:butt;stroke-linejoin:miter;stroke-miterlimit:4;stroke-dasharray:none;stroke-opacity:1"
         d="m 1469.69,1125.74 h 187.5" /><g
         transform="scale(10)"
         id="g44"><text
           id="text48"
           style="font-variant:normal;font-weight:normal;font-size:20px;font-family:'DejaVu Sans';-inkscape-font-specification:DejaVuSans;writing-mode:lr-tb;fill:#000000;fill-opacity:1;fill-rule:nonzero;stroke:none"
           transform="matrix(0,1,1,0,27.2453,8.09414)"><tspan
             id="tspan46"
             y="0"
             x="0 17.26 29.52 39.939999">Mast</tspan></text>
<text
           id="text52"
           style="font-variant:normal;font-weight:normal;font-size:20px;font-family:'DejaVu Sans';-inkscape-font-specification:DejaVuSans;writing-mode:lr-tb;fill:#000000;fill-opacity:1;fill-rule:nonzero;stroke:none"
           transform="matrix(1,0,0,-1,45.6344,7.49141)"><tspan
             id="tspan50"
             y="0"
             x="0 13 25.24 33.080002 45.32">Rotor</tspan></text>
</g><g
         transform="scale(10)"
         id="g54"><text
           id="text58"
           style="font-variant:normal;font-weight:normal;font-size:20px;font-family:'DejaVu Sans';-inkscape-font-specification:DejaVuSans;writing-mode:lr-tb;fill:#ff6600;fill-opacity:1;fill-rule:nonzero;stroke:none"
           transform="matrix(1,0,0,-1,140.134,7.49141)"><tspan
             id="tspan56"
             y="0"
             x="0 12.7 20.540001 32.799999 40.639999 52.880001">Stator</tspan></text>
</g><path
         id="path60"
         style="fill:#ff6600;fill-opacity:1;fill-rule:nonzero;stroke:none"
         d="m 1169.69,375.738 225,-149.996" /><path
         id="path62"
         style="fill:none;stroke:#000000;stroke-width:7.5;stroke-linecap:butt;stroke-linejoin:miter;stroke-miterlimit:4;stroke-dasharray:none;stroke-opacity:1"
         d="m 1169.69,375.738 225,-149.996" /><path
         id="path64"
         style="fill:none;stroke:#000000;stroke-width:7.5;stroke-linecap:butt;stroke-linejoin:miter;stroke-miterlimit:4;stroke-dasharray:none;stroke-opacity:1"
         d="M 869.691,375.738 V 225.742" /><path
         id="path66"
         style="fill:#00e000;fill-opacity:1;fill-rule:nonzero;stroke:none"
         d="m 869.691,1793.24 c 193.979,-96.17 393.509,-103.79 599.999,0 v -187.5 c -195.98,97.19 -395.74,102.78 -599.999,0 z" /><path
         id="path68"
         style="fill:#00e000;fill-opacity:1;fill-rule:nonzero;stroke:none"
         d="m 869.691,863.238 c 193.979,-96.168 393.509,-103.789 599.999,0 v -187.5 c -195.98,97.153 -395.74,102.782 -599.999,0 z" /><path
         id="path70"
         style="fill:#df00e0;fill-opacity:1;fill-rule:nonzero;stroke:none"
         d="m 869.691,533.238 c 199.569,-78.828 399.449,23.602 599.999,105 v -142.5 c -205.35,68.282 -404.61,-51.25 -599.999,-120 z" /></g></g></svg>