<?xml version="1.0" encoding="UTF-8" standalone="no"?>
<svg
   xmlns:dc="http://purl.org/dc/elements/1.1/"
   xmlns:cc="http://creativecommons.org/ns#"
   xmlns:rdf="http://www.w3.org/1999/02/22-rdf-syntax-ns#"
   xmlns:svg="http://www.w3.org/2000/svg"
   xmlns="http://www.w3.org/2000/svg"
   viewBox="0 0 260 237.33333"
   height="237.33333"
   width="260"
   xml:space="preserve"
   id="svg2"
   version="1.1"><metadata
     id="metadata8"><rdf:RDF><cc:Work
         rdf:about=""><dc:format>image/svg+xml</dc:format><dc:type
           rdf:resource="http://purl.org/dc/dcmitype/StillImage" /><dc:title></dc:title></cc:Work></rdf:RDF></metadata><defs
     id="defs6" /><g
     transform="matrix(1.3333333,0,0,-1.3333333,0,237.33333)"
     id="g10"><g
       transform="scale(0.1)"
       id="g12"><g
         transform="scale(10)"
         id="g14"><text
           id="text18"
           style="font-variant:normal;font-weight:normal;font-size:20px;font-family:'DejaVu Sans';-inkscape-font-specification:DejaVuSans;writing-mode:lr-tb;fill:#000000;fill-opacity:1;fill-rule:nonzero;stroke:none"
           transform="matrix(1,0,0,-1,3.71172,110.268)"><tspan
             id="tspan16"
             y="0"
             x="0 11.14 23.4 36.099998 48.400002">Lager</tspan></text>
</g><path
         id="path20"
         style="fill:none;stroke:#000000;stroke-width:7.5;stroke-linecap:butt;stroke-linejoin:miter;stroke-miterlimit:4;stroke-dasharray:none;stroke-opacity:1"
         d="M 307.969,998.52 V 23.5195" /><path
         id="path22"
         style="fill:none;stroke:#000000;stroke-width:7.5;stroke-linecap:butt;stroke-linejoin:miter;stroke-miterlimit:4;stroke-dasharray:none;stroke-opacity:1"
         d="m 7.96875,998.52 h 637.5 v 300 h -637.5 z" /><g
         transform="scale(10)"
         id="g24"><text
           id="text28"
           style="font-variant:normal;font-weight:normal;font-size:20px;font-family:'DejaVu Sans';-inkscape-font-specification:DejaVuSans;writing-mode:lr-tb;fill:#000000;fill-opacity:1;fill-rule:nonzero;stroke:none"
           transform="matrix(0,1,1,0,27.323,10.3715)"><tspan
             id="tspan26"
             y="0"
             x="0 17.26 29.52 39.939999">Mast</tspan></text>
</g><path
         id="path30"
         style="fill:#000000;fill-opacity:1;fill-rule:nonzero;stroke:none"
         d="M 1036.02,1717.03 675.781,338.281" /><path
         id="path32"
         style="fill:none;stroke:#000000;stroke-width:56.69290161;stroke-linecap:butt;stroke-linejoin:miter;stroke-miterlimit:4;stroke-dasharray:none;stroke-opacity:1"
         d="M 1036.02,1717.04 675.777,338.285" /><path
         id="path34"
         style="fill:#000080;fill-opacity:1;fill-rule:nonzero;stroke:none"
         d="M 1616.52,1565.35 1256.29,186.602" /><path
         id="path36"
         style="fill:none;stroke:#000000;stroke-width:56.69290161;stroke-linecap:butt;stroke-linejoin:miter;stroke-miterlimit:4;stroke-dasharray:none;stroke-opacity:1"
         d="M 1616.52,1565.35 1256.29,186.598" /><path
         id="path38"
         style="fill:#00e000;fill-opacity:1;fill-rule:nonzero;stroke:none"
         d="m 965.859,1448.52 c 163.401,-142.07 354.491,-199.89 580.511,-151.68 l -47.39,-181.41 c -165.03,143.55 -356.91,199.49 -580.5,151.68 z" /><path
         id="path40"
         style="fill:#df00e0;fill-opacity:1;fill-rule:nonzero;stroke:none"
         d="m 874.84,1100.23 c 173.17,-126.75 392.46,-78.16 607.07,-50.11 L 1445.9,912.27 c -181.41,117.96 -404.42,52.691 -610.861,35.582 z" /><g
         transform="scale(10)"
         id="g42"><text
           id="text46"
           style="font-variant:normal;font-weight:normal;font-size:19.99999237px;font-family:'DejaVu Sans';-inkscape-font-specification:DejaVuSans;writing-mode:lr-tb;fill:#000000;fill-opacity:1;fill-rule:nonzero;stroke:none"
           transform="matrix(-0.252793,-0.96752,-0.96752,0.252793,174.392,119.821)"><tspan
             id="tspan44"
             y="0"
             x="0 9.1801968 21.860191 30.080189 42.780186 48.340183 61.020176">Turbine</tspan></text>
</g><path
         id="path48"
         style="fill:none;stroke:#000000;stroke-width:7.5;stroke-linecap:butt;stroke-linejoin:miter;stroke-miterlimit:4;stroke-dasharray:none;stroke-opacity:1"
         d="m 1722.11,1227.7 -199.1,-761.958 217.7,-56.871 199.1,761.949 z" /><path
         id="path50"
         style="fill:none;stroke:#000000;stroke-width:7.5;stroke-linecap:butt;stroke-linejoin:miter;stroke-miterlimit:4;stroke-dasharray:none;stroke-opacity:1"
         d="m 647.699,1120.82 217.692,-56.87" /><path
         id="path52"
         style="fill:none;stroke:#000000;stroke-width:7.5;stroke-linecap:butt;stroke-linejoin:miter;stroke-miterlimit:4;stroke-dasharray:none;stroke-opacity:1"
         d="m 1445.9,912.266 181.4,-47.418" /><path
         id="path54"
         style="fill:#00e000;fill-opacity:1;fill-rule:nonzero;stroke:none"
         d="m 1034.1,1709.77 c 163.4,-142.07 354.49,-199.89 580.51,-151.68 l -47.38,-181.41 c -165.04,143.55 -356.88,199.49 -580.511,151.68 z" /><path
         id="path56"
         style="fill:#00e000;fill-opacity:1;fill-rule:nonzero;stroke:none"
         d="m 799.02,809.961 c 163.402,-142.07 354.5,-199.879 580.51,-151.68 L 1332.15,476.879 C 1167.11,620.43 975.23,676.371 751.602,628.551 Z" /><path
         id="path58"
         style="fill:#df00e0;fill-opacity:1;fill-rule:nonzero;stroke:none"
         d="m 715.59,490.66 c 173.16,-126.711 392.46,-78.16 607.07,-50.07 l -36.02,-137.86 c -181.41,117.969 -404.41,52.7 -610.859,35.551 z" /><path
         id="path60"
         style="fill:none;stroke:#ff6600;stroke-width:56.69290161;stroke-linecap:butt;stroke-linejoin:miter;stroke-miterlimit:4;stroke-dasharray:none;stroke-opacity:1"
         d="M 1140.47,1778.52 V 166.02" /><g
         transform="scale(10)"
         id="g62"><text
           id="text66"
           style="font-variant:normal;font-weight:normal;font-size:14px;font-family:'DejaVu Sans';-inkscape-font-specification:DejaVuSans;writing-mode:lr-tb;fill:#ff00ff;fill-opacity:1;fill-rule:nonzero;stroke:none"
           transform="matrix(1,0,0,-1,64.5457,3.85234)"><tspan
             id="tspan64"
             y="0"
             x="0 12.082 20.664 29.554001 38.43 47.040001 52.528 61.138 65.589996 73.877998 82.487999 88.241997 95.536003 104.146 109.634 116.984">Magnete versetzt</tspan></text>
</g><g
         transform="scale(10)"
         id="g68"><text
           id="text74"
           style="font-variant:normal;font-weight:normal;font-size:14px;font-family:'DejaVu Sans';-inkscape-font-specification:DejaVuSans;writing-mode:lr-tb;fill:#08f708;fill-opacity:1;fill-rule:nonzero;stroke:none"
           transform="matrix(1,0,0,-1,11.6695,160.064)"><tspan
             id="tspan70"
             y="0"
             x="0 12.082 20.664 29.554001 38.43 47.040001 52.528 61.138">Magnete </tspan><tspan
             id="tspan72"
             y="15.107"
             x="0.375 4.2670002 13.157 21.767 30.349001">ideal</tspan></text>
</g></g></g></svg>